Coordinates
version=1
nRows=12
nColumns=63
inDegrees=yes

Units are S.I. units (second, meters, Newtons, ...)
If the header above contains a line with 'inDegrees', this indicates whether rotational values are in degrees (yes) or radians (no).

endheader
time	pelvis_tilt	pelvis_list	pelvis_rotation	pelvis_tx	pelvis_ty	pelvis_tz	hip_flexion_r	hip_adduction_r	hip_rotation_r	knee_angle_r	knee_angle_r_beta	ankle_angle_r	subtalar_angle_r	mtp_angle_r	hip_flexion_l	hip_adduction_l	hip_rotation_l	knee_angle_l	knee_angle_l_beta	ankle_angle_l	subtalar_angle_l	mtp_angle_l	L5_S1_Flex_Ext	L5_S1_Lat_Bending	L5_S1_axial_rotation	L4_L5_Flex_Ext	L4_L5_Lat_Bending	L4_L5_axial_rotation	L3_L4_Flex_Ext	L3_L4_Lat_Bending	L3_L4_axial_rotation	L2_L3_Flex_Ext	L2_L3_Lat_Bending	L2_L3_axial_rotation	L1_L2_Flex_Ext	L1_L2_Lat_Bending	L1_L2_axial_rotation	L1_T12_Flex_Ext	L1_T12_Lat_Bending	L1_T12_axial_rotation	Abs_r3	Abs_r2	Abs_r1	Abs_t1	Abs_t2	neck_flexion	neck_bending	neck_rotation	arm_flex_r	arm_add_r	arm_rot_r	elbow_flex_r	pro_sup_r	wrist_flex_r	wrist_dev_r	arm_flex_l	arm_add_l	arm_rot_l	elbow_flex_l	pro_sup_l	wrist_flex_l	wrist_dev_l
2.016667	1.088252	-2.862762	98.927811	0.290920	0.754157	0.855241	-1.888816	1.538558	-1.995911	0.263160	0.004593	21.040508	2.362476	0.000000	-2.080252	-5.188783	-3.361457	1.303902	0.022757	21.074188	14.460452	0.000000	-0.190701	-0.257823	-1.194389	-0.354151	-0.342905	-1.269038	-0.313303	-0.626871	-1.269038	-0.217952	-0.626871	-1.045090	-0.177085	-0.525753	-0.970441	-0.108967	-0.399368	-0.895792	-1.362159	-2.916546	-6.642833	0.000000	0.000000	21.722681	2.121101	-13.355956	38.577231	-5.362771	29.565485	149.653679	84.952021	-17.086562	20.745532	-0.351806	-17.508779	116.431437	10.722058	20.900331	-10.301453	-0.596399
2.033333	1.043139	-2.675038	99.068299	0.290729	0.754398	0.854273	-2.171666	1.530018	-2.360026	0.248513	0.004337	21.029576	2.499489	0.000000	-2.360621	-5.181591	-2.939396	1.265118	0.022080	20.939146	14.246989	0.000000	-0.200650	-0.253307	-1.249788	-0.372628	-0.336898	-1.327900	-0.329649	-0.615890	-1.327900	-0.229323	-0.615890	-1.093565	-0.186324	-0.516543	-1.015453	-0.114652	-0.392372	-0.937341	-1.433226	-2.865458	-6.950947	0.000000	0.000000	21.522657	2.017092	-12.886561	38.764321	-5.191788	30.031955	149.670610	85.560785	-17.083300	20.245371	-0.378373	-17.503416	116.966292	10.717365	21.465138	-10.792337	-0.540697
2.050000	0.999482	-2.510946	99.130657	0.290638	0.754593	0.853412	-2.421336	1.515344	-2.760634	0.237071	0.004138	21.039936	2.790316	0.000000	-2.621414	-5.166450	-2.588667	1.219998	0.021293	20.834704	14.002151	0.000000	-0.209760	-0.249176	-1.288898	-0.389545	-0.331404	-1.369454	-0.344614	-0.605847	-1.369454	-0.239735	-0.605847	-1.127786	-0.194783	-0.508120	-1.047230	-0.119857	-0.385974	-0.966674	-1.498294	-2.818731	-7.168466	0.000000	0.000000	21.354163	1.932660	-12.407559	38.920541	-5.059970	30.460478	149.670290	86.018457	-16.899235	19.585197	-0.402650	-17.489642	117.405264	10.693574	22.162665	-11.311450	-0.472941
2.066667	0.954086	-2.372713	99.099137	0.290667	0.754755	0.852688	-2.631877	1.489833	-3.163239	0.228797	0.003993	21.074234	3.220692	0.000000	-2.859354	-5.138406	-2.329391	1.173909	0.020489	20.767076	13.732145	0.000000	-0.218882	-0.246158	-1.308839	-0.406486	-0.327390	-1.390642	-0.359602	-0.598509	-1.390642	-0.250160	-0.598509	-1.145234	-0.203254	-0.501966	-1.063432	-0.125069	-0.381299	-0.981629	-1.563453	-2.784590	-7.279371	0.000000	0.000000	21.211770	1.862368	-11.963076	39.031904	-4.959533	30.831826	149.657074	86.294533	-16.555389	18.883749	-0.429230	-17.476977	117.632563	10.655452	22.908010	-11.805072	-0.429683
2.083333	0.915975	-2.273120	98.972329	0.290813	0.754882	0.852106	-2.785018	1.460289	-3.514567	0.224485	0.003918	21.123473	3.741543	0.000000	-3.057900	-5.106256	-2.205971	1.131388	0.019746	20.747886	13.504332	0.000000	-0.225970	-0.243527	-1.311059	-0.419649	-0.323890	-1.393000	-0.371247	-0.592111	-1.393000	-0.258261	-0.592111	-1.147176	-0.209836	-0.496599	-1.065235	-0.129119	-0.377223	-0.983294	-1.614083	-2.754821	-7.291715	0.000000	0.000000	21.098772	1.830430	-11.541572	39.089269	-4.893159	31.162655	149.634922	86.443468	-16.157495	18.195861	-0.485488	-17.457404	117.501957	10.595033	23.516551	-12.234635	-0.440280
2.100000	0.893438	-2.202991	98.796377	0.291044	0.755003	0.851707	-2.886761	1.441991	-3.595308	0.222109	0.003877	21.126999	3.970752	0.000000	-3.215736	-5.081353	-2.123794	1.091479	0.019050	20.763928	13.239162	0.000000	-0.233912	-0.240730	-1.301006	-0.434397	-0.320171	-1.382319	-0.384294	-0.585311	-1.382319	-0.267338	-0.585311	-1.138380	-0.217210	-0.490897	-1.057068	-0.133657	-0.372891	-0.975755	-1.670808	-2.723188	-7.235807	0.000000	0.000000	21.023529	1.827579	-11.205720	39.086841	-4.862550	31.419450	149.604583	86.519935	-15.629741	17.514035	-0.511048	-17.436455	117.385380	10.514709	24.037784	-12.604037	-0.504194
2.116667	0.891160	-2.173210	98.547212	0.291389	0.755110	0.851473	-2.919617	1.435655	-3.510259	0.222782	0.003888	21.117502	4.133472	0.000000	-3.323414	-5.068525	-2.170933	1.062794	0.018549	20.805358	12.991210	0.000000	-0.240222	-0.237159	-1.277648	-0.446116	-0.315421	-1.357501	-0.394660	-0.576628	-1.357501	-0.274549	-0.576628	-1.117942	-0.223070	-0.483614	-1.038089	-0.137263	-0.367359	-0.958236	-1.715879	-2.682788	-7.105896	0.000000	0.000000	20.990086	1.867081	-10.923744	39.025961	-4.864479	31.621760	149.569601	86.484994	-15.008018	16.825319	-0.556911	-17.410901	116.958123	10.420021	24.306888	-12.846707	-0.637402
2.133333	0.911293	-2.161877	98.292295	0.291767	0.755230	0.851397	-2.910191	1.447229	-3.371373	0.225409	0.003934	21.106608	4.300673	0.000000	-3.396534	-5.075820	-2.233315	1.041024	0.018169	20.832879	12.706812	0.000000	-0.247594	-0.232150	-1.253006	-0.459807	-0.308760	-1.331319	-0.406772	-0.564450	-1.331319	-0.282975	-0.564450	-1.096380	-0.229916	-0.473401	-1.018067	-0.141475	-0.359601	-0.939755	-1.768539	-2.626131	-6.968844	0.000000	0.000000	20.991618	1.940365	-10.685757	38.909652	-4.873065	31.702027	149.537644	86.383584	-14.163951	16.185632	-0.592449	-17.380303	116.400415	10.320215	24.678396	-13.018624	-0.789032
2.150000	0.957096	-2.186406	97.993700	0.292227	0.755337	0.851444	-2.837898	1.478383	-3.002342	0.230787	0.004028	21.057511	4.285413	0.000000	-3.420060	-5.106593	-2.452700	1.041406	0.018176	20.853515	12.510051	0.000000	-0.252397	-0.226140	-1.218451	-0.468726	-0.300766	-1.294604	-0.414663	-0.549836	-1.294604	-0.288464	-0.549836	-1.066144	-0.234376	-0.461144	-0.989991	-0.144220	-0.350291	-0.913838	-1.802846	-2.558139	-6.776658	0.000000	0.000000	21.035363	2.034511	-10.554193	38.742765	-4.910516	31.735856	149.507664	86.245125	-13.319466	15.319151	-0.641669	-17.351952	115.660701	10.220514	24.808051	-13.042111	-0.994940
2.166667	1.029452	-2.215423	97.716315	0.292679	0.755457	0.851579	-2.744755	1.536605	-2.492296	0.237002	0.004136	20.982770	4.105015	0.000000	-3.429717	-5.167675	-2.716965	1.042438	0.018194	20.824251	12.366912	0.000000	-0.257547	-0.218008	-1.188737	-0.478291	-0.289951	-1.263033	-0.423124	-0.530065	-1.263033	-0.294351	-0.530065	-1.040145	-0.239158	-0.444562	-0.965849	-0.147162	-0.337695	-0.891553	-1.839633	-2.466151	-6.611397	0.000000	0.000000	21.090677	2.178566	-10.438520	38.561871	-4.950395	31.730070	149.485969	86.110261	-12.568005	14.379596	-0.692136	-17.307696	114.972279	10.122559	24.962844	-13.064878	-1.174635
2.183333	1.119774	-2.251236	97.449242	0.293146	0.755578	0.851792	-2.629741	1.614074	-1.842036	0.243570	0.004251	20.888405	3.762720	0.000000	-3.422940	-5.249099	-2.952012	1.052927	0.018377	20.736946	12.163289	0.000000	-0.262310	-0.209350	-1.157766	-0.487136	-0.278435	-1.230127	-0.430949	-0.509013	-1.230127	-0.299794	-0.509013	-1.013045	-0.243581	-0.426906	-0.940685	-0.149884	-0.324283	-0.868325	-1.873653	-2.368208	-6.439148	0.000000	0.000000	21.159804	2.311670	-10.455199	38.370446	-4.986721	31.681376	149.474102	86.029048	-11.992741	13.334590	-0.740294	-17.267352	114.283246	10.031023	25.198938	-13.024244	-1.355641
2.200000	1.218956	-2.292828	97.202895	0.293618	0.755692	0.852054	-2.499190	1.702124	-1.105787	0.250271	0.004368	20.800680	3.310043	0.000000	-3.401162	-5.344756	-3.194577	1.072022	0.018710	20.602043	11.986415	0.000000	-0.265556	-0.201110	-1.125766	-0.493164	-0.267477	-1.196126	-0.436282	-0.488980	-1.196126	-0.303504	-0.488980	-0.985045	-0.246595	-0.410104	-0.914685	-0.151739	-0.311520	-0.844324	-1.896839	-2.275001	-6.261172	0.000000	0.000000	21.222218	2.419656	-10.611600	38.178954	-5.015979	31.582239	149.472110	85.991967	-11.579939	12.263172	-0.794226	-17.235187	113.576762	9.959722	25.345750	-12.917864	-1.542996
